<?xml version="1.0" standalone="no"?>
<!DOCTYPE svg PUBLIC "-//W3C//DTD SVG 20010904//EN"
 "http://www.w3.org/TR/2001/REC-SVG-20010904/DTD/svg10.dtd">
<svg version="1.0" xmlns="http://www.w3.org/2000/svg"
 width="512.000000pt" height="512.000000pt" viewBox="0 0 512.000000 512.000000"
 preserveAspectRatio="xMidYMid meet">

<g transform="translate(0.000000,512.000000) scale(0.100000,-0.100000)"
fill="#000000" stroke="none">
<path d="M533 3676 c-59 -19 -99 -51 -127 -99 -20 -35 -256 -886 -381 -1376
-32 -122 -28 -169 16 -231 45 -62 93 -80 216 -80 56 0 109 3 118 6 26 10 45
63 34 93 -17 42 -38 50 -136 51 -144 0 -143 -31 -19 435 232 867 275 1018 296
1039 16 16 32 21 74 20 66 -2 146 -35 146 -62 0 -10 -65 -275 -145 -587 -80
-313 -145 -575 -145 -582 0 -8 11 -25 25 -38 24 -25 25 -25 223 -25 259 0 242
-15 242 211 0 90 4 170 8 177 20 31 121 41 177 18 l35 -15 0 -154 c0 -160 9
-210 40 -227 10 -6 54 -10 98 -10 67 0 82 -3 97 -20 26 -28 27 -116 2 -153
-17 -26 -21 -27 -100 -27 -131 -1 -137 -12 -137 -255 0 -170 -1 -175 -22 -187
-35 -19 -139 -16 -171 5 l-27 17 0 186 c0 248 14 234 -223 234 -161 0 -176 -2
-201 -21 -34 -27 -36 -77 -3 -107 21 -20 34 -22 150 -22 l127 0 0 -152 c0
-140 2 -156 23 -193 62 -109 253 -149 391 -81 97 47 116 96 116 294 l0 132 45
0 c54 0 89 16 131 62 45 47 65 93 71 158 15 156 -75 279 -203 280 l-42 0 -4
138 c-3 132 -5 141 -31 181 -72 109 -304 135 -420 47 -67 -51 -77 -80 -77
-233 l0 -133 -80 0 c-44 0 -80 4 -80 8 0 5 58 238 130 518 81 316 130 528 130
559 0 59 -22 100 -74 140 -78 59 -228 89 -313 61z"/>
<path d="M4053 3676 c-58 -19 -99 -51 -127 -99 -14 -25 -68 -203 -129 -432
-58 -214 -143 -527 -188 -695 -97 -357 -102 -402 -54 -472 18 -25 49 -52 75
-66 43 -21 52 -22 377 -22 l333 0 0 -150 c0 -195 13 -226 120 -281 63 -33 213
-34 280 -3 107 50 130 103 130 309 l0 125 46 0 c54 0 76 10 127 58 92 89 101
262 20 371 -31 41 -94 70 -150 71 l-43 0 0 113 c0 176 -24 232 -118 275 -106
48 -255 39 -335 -22 -67 -51 -77 -80 -77 -233 l0 -133 -80 0 c-44 0 -80 4 -80
9 0 5 59 238 130 518 80 314 130 529 130 559 0 57 -22 100 -74 139 -78 59
-228 89 -313 61z m195 -166 c27 -12 42 -25 42 -37 0 -10 -65 -274 -145 -587
-80 -313 -145 -575 -145 -583 0 -8 11 -25 25 -38 24 -25 25 -25 224 -25 l200
0 20 26 c19 25 21 40 21 188 0 88 4 167 8 174 20 31 121 41 177 18 l35 -15 0
-154 c0 -160 9 -210 40 -227 10 -6 54 -10 98 -10 67 0 82 -3 98 -21 24 -27 25
-115 1 -152 -17 -26 -22 -27 -100 -27 -131 -1 -137 -12 -137 -255 0 -170 -1
-175 -22 -187 -35 -19 -139 -16 -171 5 l-27 17 0 186 c0 183 0 185 -25 209
l-24 25 -370 0 c-323 0 -372 2 -385 16 -9 8 -16 19 -16 22 0 8 208 787 314
1175 35 131 70 245 77 254 31 37 105 38 187 3z"/>
<path d="M2462 3419 c-307 -29 -598 -232 -737 -514 -66 -134 -86 -216 -92
-376 -8 -208 31 -361 135 -529 120 -193 309 -336 539 -407 81 -25 102 -27 253
-27 151 0 172 2 253 27 230 71 419 214 539 407 104 168 143 321 135 529 -6
159 -32 266 -100 395 -72 139 -132 183 -188 137 -34 -27 -30 -76 10 -134 80
-117 121 -242 128 -398 19 -375 -205 -681 -582 -795 -45 -14 -93 -19 -195 -19
-102 0 -150 5 -195 19 -253 77 -436 236 -527 458 -163 403 30 862 432 1025
232 93 522 63 724 -77 65 -44 99 -48 130 -17 59 59 19 117 -133 196 -162 84
-340 118 -529 100z"/>
<path d="M2172 2913 c-21 -8 -44 -62 -37 -86 4 -12 77 -93 163 -179 l156 -158
-162 -163 c-107 -108 -162 -171 -162 -185 0 -35 42 -75 79 -75 29 0 52 19 192
159 l159 159 159 -159 c140 -140 163 -159 192 -159 37 0 79 40 79 75 0 14 -55
77 -162 185 l-162 163 156 158 c86 86 159 167 163 179 7 24 -9 61 -34 80 -40
31 -60 17 -228 -149 l-163 -162 -163 162 c-163 162 -180 173 -225 155z"/>
</g>
</svg>
